<svg width="52" height="51" viewBox="0 0 52 51" fill="none" xmlns="http://www.w3.org/2000/svg">
<g filter="url(#filter0_d_261_1681)">
<circle cx="25.6" cy="20.6" r="19.6" fill="#2C3440"/>
<rect x="5.5" y="0.5" width="40.2" height="40.2" rx="20.1" stroke="#29A19C" shape-rendering="crispEdges"/>
</g>
<path d="M10.2914 37.4225L8.27694 38.9606C8.17713 39.0422 8.06824 39.0809 7.95028 39.0765C7.83231 39.0722 7.72796 39.0381 7.63722 38.9742C7.54648 38.9107 7.47625 38.8244 7.42652 38.7156C7.3768 38.6067 7.37444 38.4887 7.41944 38.3617L8.19528 35.8436L6.22167 34.4417C6.11278 34.3691 6.04472 34.2738 6.0175 34.1558C5.99028 34.0379 5.99481 33.929 6.03111 33.8292C6.06741 33.7294 6.13093 33.6408 6.22167 33.5635C6.31241 33.4862 6.4213 33.4477 6.54833 33.4481H8.98472L9.77417 30.8347C9.81954 30.7077 9.88995 30.6101 9.98541 30.5418C10.0809 30.4736 10.1829 30.4396 10.2914 30.44C10.4003 30.44 10.5025 30.4741 10.5979 30.5424C10.6934 30.6106 10.7636 30.7081 10.8086 30.8347L11.5981 33.4481H14.0344C14.1615 33.4481 14.2704 33.4867 14.3611 33.564C14.4519 33.6413 14.5154 33.7297 14.5517 33.8292C14.588 33.929 14.5925 34.0379 14.5653 34.1558C14.5381 34.2738 14.47 34.3691 14.3611 34.4417L12.3875 35.8436L13.1633 38.3617C13.2087 38.4887 13.2065 38.6067 13.1568 38.7156C13.1071 38.8244 13.0367 38.9107 12.9456 38.9742C12.8548 39.0377 12.7505 39.0718 12.6325 39.0765C12.5145 39.0812 12.4056 39.0426 12.3058 38.9606L10.2914 37.4225Z" fill="white"/>
<path d="M45.8533 15.371L43.3998 17.2325C43.2783 17.3313 43.1456 17.3781 43.002 17.3728C42.8583 17.3676 42.7312 17.3263 42.6207 17.249C42.5102 17.1721 42.4246 17.0678 42.3641 16.936C42.3035 16.8042 42.3006 16.6614 42.3555 16.5077L43.3004 13.46L40.8966 11.7632C40.764 11.6754 40.6811 11.5601 40.648 11.4173C40.6148 11.2745 40.6203 11.1427 40.6645 11.0219C40.7087 10.9011 40.7861 10.7939 40.8966 10.7004C41.0071 10.6068 41.1398 10.5602 41.2945 10.5607H44.2619L45.2234 7.39772C45.2786 7.24397 45.3644 7.1258 45.4807 7.04321C45.5969 6.96062 45.7211 6.91955 45.8533 6.91999C45.9859 6.91999 46.1104 6.96128 46.2266 7.04387C46.3429 7.12646 46.4284 7.24441 46.4833 7.39772L47.4448 10.5607H50.4121C50.5669 10.5607 50.6995 10.6074 50.81 10.701C50.9205 10.7946 50.9979 10.9016 51.0421 11.0219C51.0863 11.1427 51.0918 11.2745 51.0587 11.4173C51.0255 11.5601 50.9426 11.6754 50.81 11.7632L48.4063 13.46L49.3512 16.5077C49.4064 16.6614 49.4038 16.8042 49.3432 16.936C49.2827 17.0678 49.1969 17.1721 49.0859 17.249C48.9754 17.3258 48.8483 17.3671 48.7047 17.3728C48.561 17.3786 48.4284 17.3318 48.3068 17.2325L45.8533 15.371Z" fill="white"/>
<path d="M26.418 30.7028L26.3822 30.697C26.3872 30.7009 26.3931 30.7035 26.3994 30.7045C26.4056 30.7055 26.412 30.7049 26.418 30.7028ZM34.5419 17.9198C34.5317 17.866 34.5038 17.817 34.4626 17.7808C34.4214 17.7446 34.3693 17.7231 34.3146 17.7199C34.2598 17.7167 34.2056 17.7318 34.1604 17.763C34.1153 17.7941 34.0818 17.8394 34.0653 17.8917C34.0496 17.9414 34.0185 17.9848 33.9765 18.0157C33.9345 18.0466 33.8839 18.0634 33.8318 18.0637H33.1408C33.0961 18.0637 33.0523 18.0515 33.014 18.0284L32.0145 17.429C31.9762 17.4059 31.9323 17.3937 31.8876 17.3937H30.2888C30.2401 17.3937 30.1925 17.4081 30.1521 17.4353L28.1803 18.7497C28.1462 18.7724 28.1183 18.8032 28.0991 18.8394C28.08 18.8755 28.0701 18.9159 28.0704 18.9569V20.8211C28.0704 20.8657 28.0825 20.9096 28.1055 20.9479C28.1284 20.9862 28.1614 21.0176 28.2008 21.0386L30.7863 22.4186C30.8251 22.4395 30.8577 22.4704 30.8806 22.5081C30.9036 22.5457 30.916 22.5889 30.9167 22.633L30.9288 23.6821C30.9294 23.7255 30.9416 23.768 30.9639 23.8052C30.9863 23.8425 31.018 23.8732 31.056 23.8942L32.0949 24.469C32.1334 24.4904 32.1654 24.5216 32.1878 24.5596C32.2102 24.5975 32.222 24.6407 32.2222 24.6847V26.8553C32.2222 26.9027 32.2359 26.9491 32.2616 26.989C32.2873 27.0288 32.324 27.0604 32.3672 27.0799C32.4105 27.0994 32.4584 27.1061 32.5053 27.099C32.5522 27.092 32.5961 27.0715 32.6317 27.0402C33.0506 26.6713 33.6513 26.1326 33.7313 26.0094C33.8635 25.8048 33.9875 25.5954 34.1033 25.381C34.3431 24.9368 34.5463 24.4738 34.7107 23.9965C35.277 22.357 34.8295 19.4098 34.5419 17.9198ZM27.2844 23.0568L24.5453 21.0024C24.5144 20.9792 24.4768 20.9667 24.4381 20.9667H23.1385C23.1162 20.9667 23.0942 20.9623 23.0737 20.9538C23.0531 20.9453 23.0345 20.9328 23.0188 20.9171L22.406 20.3043C22.3894 20.2877 22.3697 20.2746 22.348 20.2656C22.3263 20.2567 22.3031 20.252 22.2796 20.2521H19.9041C19.8706 20.2521 19.8379 20.2421 19.81 20.2235C19.7822 20.2049 19.7605 20.1785 19.7477 20.1476C19.7349 20.1166 19.7315 20.0826 19.7381 20.0498C19.7446 20.0169 19.7607 19.9868 19.7844 19.9631L20.1604 19.5871C20.1761 19.5713 20.1948 19.5588 20.2153 19.5503C20.2359 19.5418 20.2579 19.5375 20.2801 19.5375H21.7258C21.8037 19.5375 21.8794 19.512 21.9415 19.465C22.0036 19.418 22.0486 19.3521 22.0697 19.2771L22.3774 18.1829C22.384 18.1594 22.3953 18.1375 22.4107 18.1185C22.426 18.0995 22.4451 18.0839 22.4668 18.0726L23.6936 17.4411C23.7212 17.4268 23.7444 17.4052 23.7605 17.3787C23.7767 17.3521 23.7852 17.3216 23.7852 17.2906V16.7323C23.7852 16.6977 23.7958 16.6639 23.8155 16.6354L24.4676 15.6966C24.4871 15.6684 24.5149 15.6469 24.5471 15.635L25.4595 15.2924C25.4918 15.2803 25.5196 15.2587 25.5392 15.2303C25.5589 15.202 25.5694 15.1683 25.5694 15.1339V14.6247C25.5694 14.5968 25.5625 14.5693 25.5493 14.5447C25.5362 14.5201 25.5171 14.4991 25.4939 14.4836L24.5792 13.8753C24.5541 13.8588 24.5251 13.8492 24.495 13.8474C24.465 13.8457 24.435 13.8519 24.4082 13.8655L23.163 14.4881C23.1345 14.5021 23.1027 14.5079 23.0711 14.5046C23.0395 14.5014 23.0094 14.4893 22.9844 14.4697L22.394 14.003C22.3738 13.9868 22.3576 13.9662 22.3467 13.9428C22.3357 13.9194 22.3302 13.8938 22.3306 13.868C22.3311 13.8421 22.3374 13.8167 22.3491 13.7937C22.3609 13.7706 22.3777 13.7506 22.3984 13.7351L22.8781 13.3818C22.8998 13.3659 22.9174 13.345 22.9294 13.3209C22.9414 13.2968 22.9474 13.2701 22.947 13.2432C22.9466 13.2163 22.9398 13.1898 22.9271 13.1661C22.9144 13.1423 22.8962 13.122 22.8741 13.1067L22.1269 12.5855C22.101 12.5673 22.0706 12.5567 22.039 12.555C22.0074 12.5532 21.9759 12.5604 21.9482 12.5757C21.678 12.7235 20.8853 13.1612 20.6039 13.3581C19.3021 14.2711 18.2544 15.5007 17.5598 16.931C17.4785 17.099 17.378 17.27 17.3682 17.4545C17.3584 17.6389 17.2137 18.0507 17.1534 18.2173C17.1452 18.2398 17.142 18.2638 17.1438 18.2877C17.1457 18.3115 17.1526 18.3347 17.1641 18.3557L18.7581 21.2846C18.7724 21.3113 18.7937 21.3335 18.8197 21.349L20.4967 22.3556C20.5185 22.3686 20.5371 22.3863 20.551 22.4074C20.565 22.4285 20.5741 22.4525 20.5776 22.4775L20.9134 24.9134C20.9167 24.9367 20.9248 24.9591 20.9372 24.9792C20.9495 24.9993 20.9659 25.0165 20.9853 25.03L22.2939 25.9294C22.3318 25.9555 22.3582 25.9952 22.3676 26.0402L23.0616 29.3362C23.0655 29.3556 23.073 29.374 23.0835 29.3907C23.1487 29.4961 23.4087 29.882 23.7222 29.9391C23.6932 29.9472 23.6673 29.9655 23.6382 29.974C23.7135 29.9872 23.7881 30.0045 23.8615 30.0258C23.9509 30.0499 24.0402 30.0704 24.1295 30.0896C24.2693 30.1173 24.2831 30.1388 24.3501 30.0146C24.4394 29.8485 24.5417 29.7913 24.6181 29.7708C24.6496 29.7635 24.6784 29.7475 24.7013 29.7246C24.7241 29.7017 24.74 29.6728 24.7472 29.6412L25.1969 27.5564C25.2064 27.5127 25.2319 27.4742 25.2684 27.4484L27.2781 26.0237C27.3015 26.0071 27.3205 25.9853 27.3337 25.9598C27.3468 25.9344 27.3536 25.9062 27.3536 25.8776V23.1997C27.3539 23.1722 27.3478 23.1449 27.3358 23.1202C27.3237 23.0954 27.3062 23.0737 27.2844 23.0568Z" fill="white"/>
<path d="M26.1946 11.6771C26.1946 11.6771 26.0316 11.6865 25.9986 11.6874C25.7565 11.6945 25.515 11.7112 25.2742 11.7374C24.3961 11.8326 23.5361 12.053 22.7204 12.3917C22.829 12.4667 22.6423 12.5355 22.6423 12.5355L22.9344 13.1062H24.4975L25.5694 13.6422L26.5073 13.1062L26.1946 11.6771ZM30.3138 14.8954L31.0333 14.2701C31.0558 14.2506 31.0731 14.2257 31.0835 14.1978C31.0939 14.1698 31.0972 14.1397 31.0931 14.1102C31.0889 14.0807 31.0774 14.0527 31.0596 14.0287C31.0418 14.0048 31.0183 13.9857 30.9913 13.9731L30.1512 13.5832C30.1085 13.5633 30.0597 13.5611 30.0154 13.577C29.9711 13.5929 29.9348 13.6256 29.9145 13.6681L29.5684 14.392C29.5495 14.4316 29.5459 14.4768 29.5582 14.5188C29.5704 14.5609 29.5978 14.597 29.6349 14.6203L30.1021 14.9124C30.1345 14.9325 30.1726 14.9418 30.2107 14.9387C30.2488 14.9357 30.2849 14.9205 30.3138 14.8954ZM33.6817 15.8159L33.4213 15.4139C33.4173 15.4077 33.4137 15.4014 33.4101 15.3947C33.3633 15.2987 32.9751 14.5149 32.6509 14.2107C32.4075 13.9807 32.3383 14.0468 32.3191 14.0977C32.3081 14.1259 32.2897 14.1506 32.2659 14.1692L30.9779 15.2102C30.9462 15.2359 30.9066 15.2499 30.8658 15.25H30.199C30.1755 15.25 30.1523 15.2546 30.1306 15.2635C30.1089 15.2725 30.0892 15.2857 30.0726 15.3022L29.5367 15.8382C29.5201 15.8548 29.5069 15.8745 29.4979 15.8962C29.4889 15.9179 29.4843 15.9411 29.4843 15.9646C29.4843 15.9881 29.4889 16.0113 29.4979 16.033C29.5069 16.0547 29.5201 16.0744 29.5367 16.091L30.0726 16.6269C30.0892 16.6435 30.1089 16.6566 30.1306 16.6656C30.1523 16.6746 30.1755 16.6792 30.199 16.6792H33.5562C33.5803 16.6792 33.6042 16.6743 33.6264 16.6649C33.6485 16.6554 33.6686 16.6416 33.6853 16.6242C33.702 16.6068 33.715 16.5862 33.7235 16.5636C33.732 16.5411 33.7359 16.517 33.7348 16.4929L33.7103 15.9056C33.709 15.8737 33.6991 15.8427 33.6817 15.8159Z" fill="white"/>
<path d="M25.9267 12.749C27.8279 12.7488 29.6704 13.4079 31.1401 14.6139C32.6099 15.8199 33.616 17.4982 33.987 19.3628C34.3581 21.2275 34.0711 23.1631 33.175 24.8399C32.2789 26.5167 30.8291 27.8309 29.0727 28.5586C27.3162 29.2863 25.3618 29.3825 23.5424 28.8307C21.723 28.2789 20.1512 27.1134 19.0949 25.5326C18.0385 23.9519 17.5629 22.0538 17.7492 20.1617C17.9354 18.2696 18.7719 16.5006 20.1162 15.1562C20.8774 14.3907 21.7829 13.7837 22.7803 13.3705C23.7777 12.9573 24.8471 12.746 25.9267 12.749ZM25.9267 10.9625C20.4021 10.9625 15.9225 15.442 15.9225 20.9667C15.9225 26.4913 20.4021 30.9708 25.9267 30.9708C31.4513 30.9708 35.9308 26.4913 35.9308 20.9667C35.9308 15.442 31.4513 10.9625 25.9267 10.9625Z" fill="white"/>
<path d="M24.9465 10.8362H26.2532V15.4129C26.2532 15.5863 26.322 15.7526 26.4446 15.8752C26.5671 15.9978 26.7333 16.0667 26.9065 16.0667H34.7466C34.9199 16.0667 35.0861 15.9978 35.2086 15.8752C35.3312 15.7526 35.4 15.5863 35.4 15.4129V10.8362H36.7067C36.8329 10.8363 36.9565 10.7997 37.0624 10.7309C37.1683 10.6621 37.2519 10.564 37.3032 10.4485C37.3548 10.3331 37.3717 10.2051 37.352 10.0802C37.3323 9.95536 37.2767 9.83889 37.1921 9.745L31.312 3.20693C31.0644 2.93102 30.5888 2.93102 30.3412 3.20693L24.4611 9.745C24.3766 9.83893 24.3211 9.95535 24.3014 10.0802C24.2816 10.205 24.2984 10.3329 24.3498 10.4483C24.4012 10.5638 24.4849 10.6618 24.5908 10.7307C24.6967 10.7995 24.8202 10.8362 24.9465 10.8362ZM28.8332 10.6296C28.8535 10.6917 29.3644 12.1438 30.8266 12.1438C32.309 12.1438 32.8141 10.6486 32.8193 10.6329L34.0606 11.0389C34.0286 11.1376 33.2459 13.4514 30.8266 13.4514C28.4073 13.4514 27.6246 11.1376 27.5925 11.0395L28.8332 10.6296Z" fill="#29A19C"/>
<defs>
<filter id="filter0_d_261_1681" x="0.2" y="0" width="50.8" height="50.8" filterUnits="userSpaceOnUse" color-interpolation-filters="sRGB">
<feFlood flood-opacity="0" result="BackgroundImageFix"/>
<feColorMatrix in="SourceAlpha" type="matrix" values="0 0 0 0 0 0 0 0 0 0 0 0 0 0 0 0 0 0 127 0" result="hardAlpha"/>
<feOffset dy="4.8"/>
<feGaussianBlur stdDeviation="2.4"/>
<feComposite in2="hardAlpha" operator="out"/>
<feColorMatrix type="matrix" values="0 0 0 0 0.0941176 0 0 0 0 0.0941176 0 0 0 0 0.12549 0 0 0 1 0"/>
<feBlend mode="normal" in2="BackgroundImageFix" result="effect1_dropShadow_261_1681"/>
<feBlend mode="normal" in="SourceGraphic" in2="effect1_dropShadow_261_1681" result="shape"/>
</filter>
</defs>
</svg>

